<svg xmlns="http://www.w3.org/2000/svg" viewBox="0 0 32 32" fill="none">
  <rect width="32" height="32" rx="8" fill="#fff8e8" />
  <path d="M7 9.5h13.5A2.5 2.5 0 0 1 23 12v10.5A2.5 2.5 0 0 1 20.5 25H8.75A2.75 2.75 0 0 1 6 22.25V10.5A1 1 0 0 1 7 9.5Z" fill="#fbbf24" stroke="#1c1917" stroke-width="2" stroke-linejoin="round" />
  <path d="M23 13h1a2 2 0 0 1 2 2v7a3 3 0 0 1-3 3" stroke="#1c1917" stroke-width="2" stroke-linecap="round" stroke-linejoin="round" />
  <path d="M10 14h7M10 18h9M10 22h6" stroke="#1c1917" stroke-width="2" stroke-linecap="round" />
  <path d="M20.5 9.5V25" stroke="#1c1917" stroke-width="2" stroke-linecap="round" />
</svg>
